<svg xmlns="http://www.w3.org/2000/svg" version="1.1" xmlns:xlink="http://www.w3.org/1999/xlink" xmlns:svgjs="http://svgjs.com/svgjs" width="2980" height="300" transform="matrix(1,0,0,1,0,0)">
  <text font-family="DM Sans" font-size="260" text-anchor="left" x="310" charspacing="20px">
    <tspan dy="239.20000000000002" x="310">magenta workflow</tspan>
  </text>
  <path transform="matrix(1,0,0,1,50,50)" d="M12.5,25A12.499999999999998,12.499999999999998,90,0,1,25,12.5L25,12.5A12.499999999999998,12.499999999999998,90,0,1,37.5,25L37.5,25A12.500000000000004,12.500000000000004,-270,0,1,25,37.5L25,37.5A12.499999999999998,12.499999999999998,90,0,1,12.5,25ZM57.716,25A17.28354290456362,17.28354290456362,90,0,1,75,7.716L75,7.716A17.28354290456362,17.28354290456362,90,0,1,92.284,25L92.284,25A17.283542904563628,17.283542904563628,-270,0,1,75,42.284L75,42.284A17.28354290456362,17.28354290456362,90,0,1,57.716,25ZM103.661,25A21.33883476483184,21.33883476483184,90,0,1,125,3.661L125,3.661A21.33883476483184,21.33883476483184,90,0,1,146.339,25L146.339,25A21.338834764831848,21.338834764831848,-270,0,1,125,46.339L125,46.339A21.33883476483184,21.33883476483184,90,0,1,103.661,25ZM150.952,25A24.04849415639108,24.04849415639108,90,0,1,175,0.952L175,0.952A24.04849415639108,24.04849415639108,90,0,1,199.048,25L199.048,25A24.04849415639109,24.04849415639109,-270,0,1,175,49.048L175,49.048A24.04849415639108,24.04849415639108,90,0,1,150.952,25ZM50.952,75A24.048494156391083,24.048494156391083,90,0,1,75,50.952L75,50.952A24.048494156391083,24.048494156391083,90,0,1,99.048,75L99.048,75A24.048494156391094,24.048494156391094,-270,0,1,75,99.048L75,99.048A24.048494156391083,24.048494156391083,90,0,1,50.952,75ZM157.716,75A17.283542904563614,17.283542904563614,90,0,1,175,57.716L175,57.716A17.283542904563614,17.283542904563614,90,0,1,192.284,75L192.284,75A17.28354290456362,17.28354290456362,-270,0,1,175,92.284L175,92.284A17.283542904563614,17.283542904563614,90,0,1,157.716,75ZM67.284,125A7.7164570954363745,7.7164570954363745,90,0,1,75,117.284L75,117.284A7.7164570954363745,7.7164570954363745,90,0,1,82.716,125L82.716,125A7.716457095436377,7.716457095436377,-270,0,1,75,132.716L75,132.716A7.7164570954363745,7.7164570954363745,90,0,1,67.284,125ZM174.048,125A0.9515058436089133,0.9515058436089133,90,0,1,175,124.048L175,124.048A0.9515058436089133,0.9515058436089133,90,0,1,175.952,125L175.952,125A0.9515058436089137,0.9515058436089137,-270,0,1,175,125.952L175,125.952A0.9515058436089133,0.9515058436089133,90,0,1,174.048,125ZM25,175ZM74.048,175A0.9515058436089133,0.9515058436089133,90,0,1,75,174.048L75,174.048A0.9515058436089133,0.9515058436089133,90,0,1,75.952,175L75.952,175A0.9515058436089137,0.9515058436089137,-270,0,1,75,175.952L75,175.952A0.9515058436089133,0.9515058436089133,90,0,1,74.048,175ZM121.339,175A3.661165235168148,3.661165235168148,90,0,1,125,171.339L125,171.339A3.661165235168148,3.661165235168148,90,0,1,128.661,175L128.661,175A3.6611652351681494,3.6611652351681494,-270,0,1,125,178.661L125,178.661A3.661165235168148,3.661165235168148,90,0,1,121.339,175ZM167.284,175A7.716457095436367,7.716457095436367,90,0,1,175,167.284L175,167.284A7.716457095436367,7.716457095436367,90,0,1,182.716,175L182.716,175A7.71645709543637,7.71645709543637,-270,0,1,175,182.716L175,182.716A7.716457095436367,7.716457095436367,90,0,1,167.284,175Z"/>
</svg>